<mxfile host="app.diagrams.net" modified="2024-02-13T06:27:08.807Z" agent="Mozilla/5.0 (Windows NT 10.0; Win64; x64) AppleWebKit/537.36 (KHTML, like Gecko) Chrome/120.0.0.0 YaBrowser/24.1.0.0 Safari/537.36" etag="xAqiMHN1oEEkU0jMUAfT" version="23.1.3" type="github">
  <diagram name="Page-1" id="74e2e168-ea6b-b213-b513-2b3c1d86103e">
    <mxGraphModel dx="2868" dy="1582" grid="1" gridSize="10" guides="1" tooltips="1" connect="1" arrows="1" fold="1" page="1" pageScale="1" pageWidth="1100" pageHeight="850" background="none" math="0" shadow="0">
      <root>
        <mxCell id="0" />
        <mxCell id="1" parent="0" />
        <mxCell id="ZRqdcsW-6dRnH4pb2Plo-1" value="Авторизация" style="swimlane;html=1;childLayout=stackLayout;startSize=20;rounded=0;shadow=0;labelBackgroundColor=none;strokeWidth=1;fontFamily=Verdana;fontSize=8;align=center;" vertex="1" parent="1">
          <mxGeometry x="60" y="290" width="1000" height="600" as="geometry" />
        </mxCell>
        <mxCell id="ZRqdcsW-6dRnH4pb2Plo-2" value="Мобильное приложение" style="swimlane;html=1;startSize=20;" vertex="1" parent="ZRqdcsW-6dRnH4pb2Plo-1">
          <mxGeometry y="20" width="330" height="580" as="geometry" />
        </mxCell>
        <mxCell id="ZRqdcsW-6dRnH4pb2Plo-3" value="Запрос на авторизацию" style="rounded=1;whiteSpace=wrap;html=1;shadow=0;labelBackgroundColor=none;strokeWidth=1;fontFamily=Verdana;fontSize=8;align=center;" vertex="1" parent="ZRqdcsW-6dRnH4pb2Plo-2">
          <mxGeometry x="115" y="60" width="100" height="60" as="geometry" />
        </mxCell>
        <mxCell id="ZRqdcsW-6dRnH4pb2Plo-4" value="Отображается сообщение о том, что пользователь не найден" style="rounded=1;whiteSpace=wrap;html=1;shadow=0;labelBackgroundColor=none;strokeWidth=1;fontFamily=Verdana;fontSize=8;align=center;" vertex="1" parent="ZRqdcsW-6dRnH4pb2Plo-2">
          <mxGeometry x="190" y="320" width="100" height="60" as="geometry" />
        </mxCell>
        <mxCell id="ZRqdcsW-6dRnH4pb2Plo-5" value="Отображается сообщение о том, что пользователь не найден" style="rounded=1;whiteSpace=wrap;html=1;shadow=0;labelBackgroundColor=none;strokeWidth=1;fontFamily=Verdana;fontSize=8;align=center;" vertex="1" parent="ZRqdcsW-6dRnH4pb2Plo-2">
          <mxGeometry x="190" y="410" width="100" height="60" as="geometry" />
        </mxCell>
        <mxCell id="ZRqdcsW-6dRnH4pb2Plo-6" value="Пользователь успешно прошёл авторизацию" style="rounded=1;whiteSpace=wrap;html=1;shadow=0;labelBackgroundColor=none;strokeWidth=1;fontFamily=Verdana;fontSize=8;align=center;" vertex="1" parent="ZRqdcsW-6dRnH4pb2Plo-2">
          <mxGeometry x="190" y="500" width="100" height="60" as="geometry" />
        </mxCell>
        <mxCell id="ZRqdcsW-6dRnH4pb2Plo-7" style="edgeStyle=orthogonalEdgeStyle;rounded=1;html=1;labelBackgroundColor=none;startArrow=none;startFill=0;startSize=5;endArrow=classicThin;endFill=1;endSize=5;jettySize=auto;orthogonalLoop=1;strokeWidth=1;fontFamily=Verdana;fontSize=8" edge="1" parent="ZRqdcsW-6dRnH4pb2Plo-1" source="ZRqdcsW-6dRnH4pb2Plo-3" target="ZRqdcsW-6dRnH4pb2Plo-9">
          <mxGeometry relative="1" as="geometry" />
        </mxCell>
        <mxCell id="ZRqdcsW-6dRnH4pb2Plo-8" value="Сайт" style="swimlane;html=1;startSize=20;" vertex="1" parent="ZRqdcsW-6dRnH4pb2Plo-1">
          <mxGeometry x="330" y="20" width="670" height="580" as="geometry" />
        </mxCell>
        <mxCell id="ZRqdcsW-6dRnH4pb2Plo-9" value="Поиск пользователя" style="rounded=1;whiteSpace=wrap;html=1;shadow=0;labelBackgroundColor=none;strokeWidth=1;fontFamily=Verdana;fontSize=8;align=center;" vertex="1" parent="ZRqdcsW-6dRnH4pb2Plo-8">
          <mxGeometry x="285" y="60" width="100" height="60" as="geometry" />
        </mxCell>
        <mxCell id="ZRqdcsW-6dRnH4pb2Plo-10" value="&lt;font style=&quot;font-size: 10px;&quot;&gt;Пользователь найден?&lt;/font&gt;" style="rhombus;whiteSpace=wrap;html=1;" vertex="1" parent="ZRqdcsW-6dRnH4pb2Plo-8">
          <mxGeometry x="282.5" y="150" width="105" height="80" as="geometry" />
        </mxCell>
        <mxCell id="ZRqdcsW-6dRnH4pb2Plo-11" value="" style="endArrow=classic;html=1;rounded=0;exitX=0.5;exitY=1;exitDx=0;exitDy=0;entryX=0.5;entryY=0;entryDx=0;entryDy=0;" edge="1" parent="ZRqdcsW-6dRnH4pb2Plo-8" source="ZRqdcsW-6dRnH4pb2Plo-9" target="ZRqdcsW-6dRnH4pb2Plo-10">
          <mxGeometry width="50" height="50" relative="1" as="geometry">
            <mxPoint x="430" y="160" as="sourcePoint" />
            <mxPoint x="480" y="110" as="targetPoint" />
          </mxGeometry>
        </mxCell>
        <mxCell id="ZRqdcsW-6dRnH4pb2Plo-12" value="Ответ о том, что пользователь не найден" style="rounded=1;whiteSpace=wrap;html=1;shadow=0;labelBackgroundColor=none;strokeWidth=1;fontFamily=Verdana;fontSize=8;align=center;" vertex="1" parent="ZRqdcsW-6dRnH4pb2Plo-8">
          <mxGeometry x="150" y="230" width="100" height="60" as="geometry" />
        </mxCell>
        <mxCell id="ZRqdcsW-6dRnH4pb2Plo-13" value="" style="endArrow=classic;html=1;rounded=0;exitX=0;exitY=0.5;exitDx=0;exitDy=0;entryX=0.5;entryY=0;entryDx=0;entryDy=0;edgeStyle=orthogonalEdgeStyle;" edge="1" parent="ZRqdcsW-6dRnH4pb2Plo-8" source="ZRqdcsW-6dRnH4pb2Plo-10" target="ZRqdcsW-6dRnH4pb2Plo-12">
          <mxGeometry width="50" height="50" relative="1" as="geometry">
            <mxPoint x="200" y="200" as="sourcePoint" />
            <mxPoint x="250" y="150" as="targetPoint" />
          </mxGeometry>
        </mxCell>
        <mxCell id="ZRqdcsW-6dRnH4pb2Plo-14" value="Нет" style="edgeLabel;html=1;align=center;verticalAlign=middle;resizable=0;points=[];" vertex="1" connectable="0" parent="ZRqdcsW-6dRnH4pb2Plo-13">
          <mxGeometry x="-0.7362" y="-2" relative="1" as="geometry">
            <mxPoint as="offset" />
          </mxGeometry>
        </mxCell>
        <mxCell id="ZRqdcsW-6dRnH4pb2Plo-15" value="&lt;font style=&quot;font-size: 10px;&quot;&gt;Пароль верный?&lt;/font&gt;" style="rhombus;whiteSpace=wrap;html=1;" vertex="1" parent="ZRqdcsW-6dRnH4pb2Plo-8">
          <mxGeometry x="410" y="230" width="105" height="80" as="geometry" />
        </mxCell>
        <mxCell id="ZRqdcsW-6dRnH4pb2Plo-16" value="" style="endArrow=classic;html=1;rounded=0;exitX=1;exitY=0.5;exitDx=0;exitDy=0;entryX=0.5;entryY=0;entryDx=0;entryDy=0;edgeStyle=orthogonalEdgeStyle;" edge="1" parent="ZRqdcsW-6dRnH4pb2Plo-8" source="ZRqdcsW-6dRnH4pb2Plo-10" target="ZRqdcsW-6dRnH4pb2Plo-15">
          <mxGeometry width="50" height="50" relative="1" as="geometry">
            <mxPoint x="400" y="200" as="sourcePoint" />
            <mxPoint x="500" y="160" as="targetPoint" />
          </mxGeometry>
        </mxCell>
        <mxCell id="ZRqdcsW-6dRnH4pb2Plo-17" value="Да" style="edgeLabel;html=1;align=center;verticalAlign=middle;resizable=0;points=[];" vertex="1" connectable="0" parent="ZRqdcsW-6dRnH4pb2Plo-16">
          <mxGeometry x="-0.6113" relative="1" as="geometry">
            <mxPoint as="offset" />
          </mxGeometry>
        </mxCell>
        <mxCell id="ZRqdcsW-6dRnH4pb2Plo-18" value="Ответ о том, что пароль неверный" style="rounded=1;whiteSpace=wrap;html=1;shadow=0;labelBackgroundColor=none;strokeWidth=1;fontFamily=Verdana;fontSize=8;align=center;" vertex="1" parent="ZRqdcsW-6dRnH4pb2Plo-8">
          <mxGeometry x="300" y="310" width="100" height="60" as="geometry" />
        </mxCell>
        <mxCell id="ZRqdcsW-6dRnH4pb2Plo-19" value="Возвращает данные пользователя" style="rounded=1;whiteSpace=wrap;html=1;shadow=0;labelBackgroundColor=none;strokeWidth=1;fontFamily=Verdana;fontSize=8;align=center;" vertex="1" parent="ZRqdcsW-6dRnH4pb2Plo-8">
          <mxGeometry x="530" y="310" width="100" height="60" as="geometry" />
        </mxCell>
        <mxCell id="ZRqdcsW-6dRnH4pb2Plo-20" value="" style="endArrow=classic;html=1;rounded=0;exitX=0;exitY=0.5;exitDx=0;exitDy=0;entryX=0.5;entryY=0;entryDx=0;entryDy=0;edgeStyle=orthogonalEdgeStyle;" edge="1" parent="ZRqdcsW-6dRnH4pb2Plo-8" source="ZRqdcsW-6dRnH4pb2Plo-15" target="ZRqdcsW-6dRnH4pb2Plo-18">
          <mxGeometry width="50" height="50" relative="1" as="geometry">
            <mxPoint x="250" y="330" as="sourcePoint" />
            <mxPoint x="300" y="280" as="targetPoint" />
          </mxGeometry>
        </mxCell>
        <mxCell id="ZRqdcsW-6dRnH4pb2Plo-21" value="Нет" style="edgeLabel;html=1;align=center;verticalAlign=middle;resizable=0;points=[];" vertex="1" connectable="0" parent="ZRqdcsW-6dRnH4pb2Plo-20">
          <mxGeometry x="-0.7606" y="2" relative="1" as="geometry">
            <mxPoint as="offset" />
          </mxGeometry>
        </mxCell>
        <mxCell id="ZRqdcsW-6dRnH4pb2Plo-22" value="" style="endArrow=classic;html=1;rounded=0;exitX=1;exitY=0.5;exitDx=0;exitDy=0;entryX=0.5;entryY=0;entryDx=0;entryDy=0;edgeStyle=orthogonalEdgeStyle;" edge="1" parent="ZRqdcsW-6dRnH4pb2Plo-8" source="ZRqdcsW-6dRnH4pb2Plo-15" target="ZRqdcsW-6dRnH4pb2Plo-19">
          <mxGeometry width="50" height="50" relative="1" as="geometry">
            <mxPoint x="420" y="280" as="sourcePoint" />
            <mxPoint x="280" y="360" as="targetPoint" />
          </mxGeometry>
        </mxCell>
        <mxCell id="ZRqdcsW-6dRnH4pb2Plo-23" value="Да" style="edgeLabel;html=1;align=center;verticalAlign=middle;resizable=0;points=[];" vertex="1" connectable="0" parent="ZRqdcsW-6dRnH4pb2Plo-22">
          <mxGeometry x="-0.6834" y="-1" relative="1" as="geometry">
            <mxPoint as="offset" />
          </mxGeometry>
        </mxCell>
        <mxCell id="ZRqdcsW-6dRnH4pb2Plo-24" value="" style="endArrow=classic;html=1;rounded=0;exitX=0.5;exitY=1;exitDx=0;exitDy=0;entryX=0.5;entryY=0;entryDx=0;entryDy=0;edgeStyle=orthogonalEdgeStyle;" edge="1" parent="ZRqdcsW-6dRnH4pb2Plo-1" source="ZRqdcsW-6dRnH4pb2Plo-12" target="ZRqdcsW-6dRnH4pb2Plo-4">
          <mxGeometry width="50" height="50" relative="1" as="geometry">
            <mxPoint x="340" y="480" as="sourcePoint" />
            <mxPoint x="390" y="430" as="targetPoint" />
          </mxGeometry>
        </mxCell>
        <mxCell id="ZRqdcsW-6dRnH4pb2Plo-25" value="" style="endArrow=classic;html=1;rounded=0;exitX=0.5;exitY=1;exitDx=0;exitDy=0;entryX=0.5;entryY=0;entryDx=0;entryDy=0;edgeStyle=orthogonalEdgeStyle;" edge="1" parent="ZRqdcsW-6dRnH4pb2Plo-1" source="ZRqdcsW-6dRnH4pb2Plo-18" target="ZRqdcsW-6dRnH4pb2Plo-5">
          <mxGeometry width="50" height="50" relative="1" as="geometry">
            <mxPoint x="540" y="320" as="sourcePoint" />
            <mxPoint x="250" y="365" as="targetPoint" />
            <Array as="points">
              <mxPoint x="680" y="410" />
              <mxPoint x="240" y="410" />
            </Array>
          </mxGeometry>
        </mxCell>
        <mxCell id="ZRqdcsW-6dRnH4pb2Plo-26" value="" style="endArrow=classic;html=1;rounded=0;exitX=0.5;exitY=1;exitDx=0;exitDy=0;entryX=0.5;entryY=0;entryDx=0;entryDy=0;edgeStyle=orthogonalEdgeStyle;" edge="1" parent="ZRqdcsW-6dRnH4pb2Plo-1" source="ZRqdcsW-6dRnH4pb2Plo-19" target="ZRqdcsW-6dRnH4pb2Plo-6">
          <mxGeometry width="50" height="50" relative="1" as="geometry">
            <mxPoint x="690" y="560" as="sourcePoint" />
            <mxPoint x="740" y="510" as="targetPoint" />
            <Array as="points">
              <mxPoint x="910" y="500" />
              <mxPoint x="240" y="500" />
            </Array>
          </mxGeometry>
        </mxCell>
        <mxCell id="ZRqdcsW-6dRnH4pb2Plo-27" value="Получить заказы" style="swimlane;html=1;childLayout=stackLayout;startSize=20;rounded=0;shadow=0;labelBackgroundColor=none;strokeWidth=1;fontFamily=Verdana;fontSize=8;align=center;" vertex="1" parent="1">
          <mxGeometry x="60" y="950" width="1000" height="360" as="geometry" />
        </mxCell>
        <mxCell id="ZRqdcsW-6dRnH4pb2Plo-28" value="Мобильное приложение" style="swimlane;html=1;startSize=20;" vertex="1" parent="ZRqdcsW-6dRnH4pb2Plo-27">
          <mxGeometry y="20" width="330" height="340" as="geometry" />
        </mxCell>
        <mxCell id="ZRqdcsW-6dRnH4pb2Plo-29" value="Запрос на получение новых заказов" style="rounded=1;whiteSpace=wrap;html=1;shadow=0;labelBackgroundColor=none;strokeWidth=1;fontFamily=Verdana;fontSize=8;align=center;" vertex="1" parent="ZRqdcsW-6dRnH4pb2Plo-28">
          <mxGeometry x="115" y="60" width="100" height="60" as="geometry" />
        </mxCell>
        <mxCell id="ZRqdcsW-6dRnH4pb2Plo-30" value="Заказы отображаются на странице" style="rounded=1;whiteSpace=wrap;html=1;shadow=0;labelBackgroundColor=none;strokeWidth=1;fontFamily=Verdana;fontSize=8;align=center;" vertex="1" parent="ZRqdcsW-6dRnH4pb2Plo-28">
          <mxGeometry x="190" y="260" width="100" height="60" as="geometry" />
        </mxCell>
        <mxCell id="ZRqdcsW-6dRnH4pb2Plo-31" style="edgeStyle=orthogonalEdgeStyle;rounded=1;html=1;labelBackgroundColor=none;startArrow=none;startFill=0;startSize=5;endArrow=classicThin;endFill=1;endSize=5;jettySize=auto;orthogonalLoop=1;strokeWidth=1;fontFamily=Verdana;fontSize=8" edge="1" parent="ZRqdcsW-6dRnH4pb2Plo-27" source="ZRqdcsW-6dRnH4pb2Plo-29" target="ZRqdcsW-6dRnH4pb2Plo-33">
          <mxGeometry relative="1" as="geometry" />
        </mxCell>
        <mxCell id="ZRqdcsW-6dRnH4pb2Plo-32" value="Сайт" style="swimlane;html=1;startSize=20;" vertex="1" parent="ZRqdcsW-6dRnH4pb2Plo-27">
          <mxGeometry x="330" y="20" width="670" height="340" as="geometry" />
        </mxCell>
        <mxCell id="ZRqdcsW-6dRnH4pb2Plo-33" value="Поиск новых заказов" style="rounded=1;whiteSpace=wrap;html=1;shadow=0;labelBackgroundColor=none;strokeWidth=1;fontFamily=Verdana;fontSize=8;align=center;" vertex="1" parent="ZRqdcsW-6dRnH4pb2Plo-32">
          <mxGeometry x="285" y="60" width="100" height="60" as="geometry" />
        </mxCell>
        <mxCell id="ZRqdcsW-6dRnH4pb2Plo-34" value="Возвращает заказы" style="rounded=1;whiteSpace=wrap;html=1;shadow=0;labelBackgroundColor=none;strokeWidth=1;fontFamily=Verdana;fontSize=8;align=center;" vertex="1" parent="ZRqdcsW-6dRnH4pb2Plo-32">
          <mxGeometry x="285" y="140" width="100" height="60" as="geometry" />
        </mxCell>
        <mxCell id="ZRqdcsW-6dRnH4pb2Plo-35" value="" style="endArrow=classic;html=1;rounded=0;exitX=0.5;exitY=1;exitDx=0;exitDy=0;entryX=0.5;entryY=0;entryDx=0;entryDy=0;edgeStyle=orthogonalEdgeStyle;" edge="1" parent="ZRqdcsW-6dRnH4pb2Plo-32" source="ZRqdcsW-6dRnH4pb2Plo-33" target="ZRqdcsW-6dRnH4pb2Plo-34">
          <mxGeometry width="50" height="50" relative="1" as="geometry">
            <mxPoint x="282.5" y="190" as="sourcePoint" />
            <mxPoint x="250" y="150" as="targetPoint" />
          </mxGeometry>
        </mxCell>
        <mxCell id="ZRqdcsW-6dRnH4pb2Plo-36" value="" style="endArrow=classic;html=1;rounded=0;exitX=0.5;exitY=1;exitDx=0;exitDy=0;entryX=0.5;entryY=0;entryDx=0;entryDy=0;edgeStyle=orthogonalEdgeStyle;" edge="1" parent="ZRqdcsW-6dRnH4pb2Plo-27" source="ZRqdcsW-6dRnH4pb2Plo-34" target="ZRqdcsW-6dRnH4pb2Plo-30">
          <mxGeometry width="50" height="50" relative="1" as="geometry">
            <mxPoint x="340" y="480" as="sourcePoint" />
            <mxPoint x="390" y="430" as="targetPoint" />
            <Array as="points">
              <mxPoint x="665" y="240" />
              <mxPoint x="240" y="240" />
            </Array>
          </mxGeometry>
        </mxCell>
        <mxCell id="ZRqdcsW-6dRnH4pb2Plo-37" value="Получить статусы заказов" style="swimlane;html=1;childLayout=stackLayout;startSize=20;rounded=0;shadow=0;labelBackgroundColor=none;strokeWidth=1;fontFamily=Verdana;fontSize=8;align=center;" vertex="1" parent="1">
          <mxGeometry x="1130" y="290" width="1000" height="360" as="geometry" />
        </mxCell>
        <mxCell id="ZRqdcsW-6dRnH4pb2Plo-38" value="Мобильное приложение" style="swimlane;html=1;startSize=20;" vertex="1" parent="ZRqdcsW-6dRnH4pb2Plo-37">
          <mxGeometry y="20" width="330" height="340" as="geometry" />
        </mxCell>
        <mxCell id="ZRqdcsW-6dRnH4pb2Plo-39" value="Запрос на получение статусов заказов" style="rounded=1;whiteSpace=wrap;html=1;shadow=0;labelBackgroundColor=none;strokeWidth=1;fontFamily=Verdana;fontSize=8;align=center;" vertex="1" parent="ZRqdcsW-6dRnH4pb2Plo-38">
          <mxGeometry x="115" y="60" width="100" height="60" as="geometry" />
        </mxCell>
        <mxCell id="ZRqdcsW-6dRnH4pb2Plo-40" value="Статус отображается в заказе" style="rounded=1;whiteSpace=wrap;html=1;shadow=0;labelBackgroundColor=none;strokeWidth=1;fontFamily=Verdana;fontSize=8;align=center;" vertex="1" parent="ZRqdcsW-6dRnH4pb2Plo-38">
          <mxGeometry x="115" y="240" width="100" height="60" as="geometry" />
        </mxCell>
        <mxCell id="ZRqdcsW-6dRnH4pb2Plo-41" style="edgeStyle=orthogonalEdgeStyle;rounded=1;html=1;labelBackgroundColor=none;startArrow=none;startFill=0;startSize=5;endArrow=classicThin;endFill=1;endSize=5;jettySize=auto;orthogonalLoop=1;strokeWidth=1;fontFamily=Verdana;fontSize=8" edge="1" parent="ZRqdcsW-6dRnH4pb2Plo-37" source="ZRqdcsW-6dRnH4pb2Plo-39" target="ZRqdcsW-6dRnH4pb2Plo-43">
          <mxGeometry relative="1" as="geometry" />
        </mxCell>
        <mxCell id="ZRqdcsW-6dRnH4pb2Plo-42" value="Сайт" style="swimlane;html=1;startSize=20;" vertex="1" parent="ZRqdcsW-6dRnH4pb2Plo-37">
          <mxGeometry x="330" y="20" width="670" height="340" as="geometry" />
        </mxCell>
        <mxCell id="ZRqdcsW-6dRnH4pb2Plo-43" value="Поиск заказов, для которых необходимо получить статусы" style="rounded=1;whiteSpace=wrap;html=1;shadow=0;labelBackgroundColor=none;strokeWidth=1;fontFamily=Verdana;fontSize=8;align=center;" vertex="1" parent="ZRqdcsW-6dRnH4pb2Plo-42">
          <mxGeometry x="285" y="60" width="100" height="60" as="geometry" />
        </mxCell>
        <mxCell id="ZRqdcsW-6dRnH4pb2Plo-44" value="Возвращает массив статусов для каждого заказа" style="rounded=1;whiteSpace=wrap;html=1;shadow=0;labelBackgroundColor=none;strokeWidth=1;fontFamily=Verdana;fontSize=8;align=center;" vertex="1" parent="ZRqdcsW-6dRnH4pb2Plo-42">
          <mxGeometry x="285" y="140" width="100" height="60" as="geometry" />
        </mxCell>
        <mxCell id="ZRqdcsW-6dRnH4pb2Plo-45" value="" style="endArrow=classic;html=1;rounded=0;exitX=0.5;exitY=1;exitDx=0;exitDy=0;entryX=0.5;entryY=0;entryDx=0;entryDy=0;edgeStyle=orthogonalEdgeStyle;" edge="1" parent="ZRqdcsW-6dRnH4pb2Plo-42" source="ZRqdcsW-6dRnH4pb2Plo-43" target="ZRqdcsW-6dRnH4pb2Plo-44">
          <mxGeometry width="50" height="50" relative="1" as="geometry">
            <mxPoint x="282.5" y="190" as="sourcePoint" />
            <mxPoint x="250" y="150" as="targetPoint" />
          </mxGeometry>
        </mxCell>
        <mxCell id="ZRqdcsW-6dRnH4pb2Plo-46" value="" style="endArrow=classic;html=1;rounded=0;exitX=0.5;exitY=1;exitDx=0;exitDy=0;entryX=0.5;entryY=0;entryDx=0;entryDy=0;edgeStyle=orthogonalEdgeStyle;" edge="1" parent="ZRqdcsW-6dRnH4pb2Plo-37" source="ZRqdcsW-6dRnH4pb2Plo-44" target="ZRqdcsW-6dRnH4pb2Plo-40">
          <mxGeometry width="50" height="50" relative="1" as="geometry">
            <mxPoint x="340" y="480" as="sourcePoint" />
            <mxPoint x="390" y="430" as="targetPoint" />
            <Array as="points">
              <mxPoint x="665" y="240" />
              <mxPoint x="165" y="240" />
            </Array>
          </mxGeometry>
        </mxCell>
        <mxCell id="ZRqdcsW-6dRnH4pb2Plo-47" value="Взять заказ в доставку" style="swimlane;html=1;childLayout=stackLayout;startSize=20;rounded=0;shadow=0;labelBackgroundColor=none;strokeWidth=1;fontFamily=Verdana;fontSize=8;align=center;" vertex="1" parent="1">
          <mxGeometry x="1130" y="690" width="1000" height="630" as="geometry" />
        </mxCell>
        <mxCell id="ZRqdcsW-6dRnH4pb2Plo-48" value="Мобильное приложение" style="swimlane;html=1;startSize=20;" vertex="1" parent="ZRqdcsW-6dRnH4pb2Plo-47">
          <mxGeometry y="20" width="330" height="610" as="geometry" />
        </mxCell>
        <mxCell id="ZRqdcsW-6dRnH4pb2Plo-49" value="Запрос на взятие заказа в доставку" style="rounded=1;whiteSpace=wrap;html=1;shadow=0;labelBackgroundColor=none;strokeWidth=1;fontFamily=Verdana;fontSize=8;align=center;" vertex="1" parent="ZRqdcsW-6dRnH4pb2Plo-48">
          <mxGeometry x="115" y="60" width="100" height="60" as="geometry" />
        </mxCell>
        <mxCell id="ZRqdcsW-6dRnH4pb2Plo-50" value="Отображается сообщение о том, что произошла непредвиденная ошибка" style="rounded=1;whiteSpace=wrap;html=1;shadow=0;labelBackgroundColor=none;strokeWidth=1;fontFamily=Verdana;fontSize=8;align=center;" vertex="1" parent="ZRqdcsW-6dRnH4pb2Plo-48">
          <mxGeometry x="115" y="320" width="100" height="60" as="geometry" />
        </mxCell>
        <mxCell id="ZRqdcsW-6dRnH4pb2Plo-51" value="Отображается сообщение о том, что заказ взят в доставку" style="rounded=1;whiteSpace=wrap;html=1;shadow=0;labelBackgroundColor=none;strokeWidth=1;fontFamily=Verdana;fontSize=8;align=center;" vertex="1" parent="ZRqdcsW-6dRnH4pb2Plo-48">
          <mxGeometry x="130" y="490" width="100" height="60" as="geometry" />
        </mxCell>
        <mxCell id="ZRqdcsW-6dRnH4pb2Plo-52" style="edgeStyle=orthogonalEdgeStyle;rounded=1;html=1;labelBackgroundColor=none;startArrow=none;startFill=0;startSize=5;endArrow=classicThin;endFill=1;endSize=5;jettySize=auto;orthogonalLoop=1;strokeWidth=1;fontFamily=Verdana;fontSize=8" edge="1" parent="ZRqdcsW-6dRnH4pb2Plo-47" source="ZRqdcsW-6dRnH4pb2Plo-49" target="ZRqdcsW-6dRnH4pb2Plo-54">
          <mxGeometry relative="1" as="geometry" />
        </mxCell>
        <mxCell id="ZRqdcsW-6dRnH4pb2Plo-53" value="Сайт" style="swimlane;html=1;startSize=20;" vertex="1" parent="ZRqdcsW-6dRnH4pb2Plo-47">
          <mxGeometry x="330" y="20" width="670" height="610" as="geometry" />
        </mxCell>
        <mxCell id="ZRqdcsW-6dRnH4pb2Plo-54" value="Поиск заказа" style="rounded=1;whiteSpace=wrap;html=1;shadow=0;labelBackgroundColor=none;strokeWidth=1;fontFamily=Verdana;fontSize=8;align=center;" vertex="1" parent="ZRqdcsW-6dRnH4pb2Plo-53">
          <mxGeometry x="285" y="60" width="100" height="60" as="geometry" />
        </mxCell>
        <mxCell id="ZRqdcsW-6dRnH4pb2Plo-55" value="" style="endArrow=classic;html=1;rounded=0;exitX=0.5;exitY=1;exitDx=0;exitDy=0;entryX=0.5;entryY=0;entryDx=0;entryDy=0;edgeStyle=orthogonalEdgeStyle;" edge="1" parent="ZRqdcsW-6dRnH4pb2Plo-53" source="ZRqdcsW-6dRnH4pb2Plo-54" target="ZRqdcsW-6dRnH4pb2Plo-56">
          <mxGeometry width="50" height="50" relative="1" as="geometry">
            <mxPoint x="282.5" y="190" as="sourcePoint" />
            <mxPoint x="335" y="140" as="targetPoint" />
          </mxGeometry>
        </mxCell>
        <mxCell id="ZRqdcsW-6dRnH4pb2Plo-56" value="&lt;font style=&quot;font-size: 10px;&quot;&gt;Заказ найден?&lt;/font&gt;" style="rhombus;whiteSpace=wrap;html=1;" vertex="1" parent="ZRqdcsW-6dRnH4pb2Plo-53">
          <mxGeometry x="282.5" y="140" width="105" height="80" as="geometry" />
        </mxCell>
        <mxCell id="ZRqdcsW-6dRnH4pb2Plo-57" value="Ответ о том, что заказ не найден" style="rounded=1;whiteSpace=wrap;html=1;shadow=0;labelBackgroundColor=none;strokeWidth=1;fontFamily=Verdana;fontSize=8;align=center;" vertex="1" parent="ZRqdcsW-6dRnH4pb2Plo-53">
          <mxGeometry x="180" y="220" width="100" height="60" as="geometry" />
        </mxCell>
        <mxCell id="ZRqdcsW-6dRnH4pb2Plo-58" value="" style="endArrow=classic;html=1;rounded=0;exitX=0;exitY=0.5;exitDx=0;exitDy=0;entryX=0.5;entryY=0;entryDx=0;entryDy=0;edgeStyle=orthogonalEdgeStyle;" edge="1" parent="ZRqdcsW-6dRnH4pb2Plo-53" source="ZRqdcsW-6dRnH4pb2Plo-56" target="ZRqdcsW-6dRnH4pb2Plo-57">
          <mxGeometry width="50" height="50" relative="1" as="geometry">
            <mxPoint x="100" y="200" as="sourcePoint" />
            <mxPoint x="150" y="150" as="targetPoint" />
          </mxGeometry>
        </mxCell>
        <mxCell id="ZRqdcsW-6dRnH4pb2Plo-59" value="Нет" style="edgeLabel;html=1;align=center;verticalAlign=middle;resizable=0;points=[];" vertex="1" connectable="0" parent="ZRqdcsW-6dRnH4pb2Plo-58">
          <mxGeometry x="-0.6637" y="3" relative="1" as="geometry">
            <mxPoint as="offset" />
          </mxGeometry>
        </mxCell>
        <mxCell id="ZRqdcsW-6dRnH4pb2Plo-60" value="" style="endArrow=classic;html=1;rounded=0;exitX=1;exitY=0.5;exitDx=0;exitDy=0;entryX=0.5;entryY=0;entryDx=0;entryDy=0;edgeStyle=orthogonalEdgeStyle;" edge="1" parent="ZRqdcsW-6dRnH4pb2Plo-53" source="ZRqdcsW-6dRnH4pb2Plo-56" target="ZRqdcsW-6dRnH4pb2Plo-62">
          <mxGeometry width="50" height="50" relative="1" as="geometry">
            <mxPoint x="520" y="130" as="sourcePoint" />
            <mxPoint x="450" y="220" as="targetPoint" />
          </mxGeometry>
        </mxCell>
        <mxCell id="ZRqdcsW-6dRnH4pb2Plo-61" value="Да" style="edgeLabel;html=1;align=center;verticalAlign=middle;resizable=0;points=[];" vertex="1" connectable="0" parent="ZRqdcsW-6dRnH4pb2Plo-60">
          <mxGeometry x="-0.4676" y="1" relative="1" as="geometry">
            <mxPoint as="offset" />
          </mxGeometry>
        </mxCell>
        <mxCell id="ZRqdcsW-6dRnH4pb2Plo-62" value="&lt;font style=&quot;font-size: 10px;&quot;&gt;Заказ уже взят другим курьером?&lt;/font&gt;" style="rhombus;whiteSpace=wrap;html=1;" vertex="1" parent="ZRqdcsW-6dRnH4pb2Plo-53">
          <mxGeometry x="385" y="220" width="125" height="80" as="geometry" />
        </mxCell>
        <mxCell id="ZRqdcsW-6dRnH4pb2Plo-63" value="Отправить ответ о том, что заказ уже взят другим курьером" style="rounded=1;whiteSpace=wrap;html=1;shadow=0;labelBackgroundColor=none;strokeWidth=1;fontFamily=Verdana;fontSize=8;align=center;" vertex="1" parent="ZRqdcsW-6dRnH4pb2Plo-53">
          <mxGeometry x="510" y="320" width="100" height="60" as="geometry" />
        </mxCell>
        <mxCell id="ZRqdcsW-6dRnH4pb2Plo-64" value="" style="endArrow=classic;html=1;rounded=0;exitX=1;exitY=0.5;exitDx=0;exitDy=0;entryX=0.5;entryY=0;entryDx=0;entryDy=0;edgeStyle=orthogonalEdgeStyle;" edge="1" parent="ZRqdcsW-6dRnH4pb2Plo-53" source="ZRqdcsW-6dRnH4pb2Plo-62" target="ZRqdcsW-6dRnH4pb2Plo-63">
          <mxGeometry width="50" height="50" relative="1" as="geometry">
            <mxPoint x="480" y="410" as="sourcePoint" />
            <mxPoint x="530" y="360" as="targetPoint" />
          </mxGeometry>
        </mxCell>
        <mxCell id="ZRqdcsW-6dRnH4pb2Plo-65" value="Да" style="edgeLabel;html=1;align=center;verticalAlign=middle;resizable=0;points=[];" vertex="1" connectable="0" parent="ZRqdcsW-6dRnH4pb2Plo-64">
          <mxGeometry x="-0.4992" y="2" relative="1" as="geometry">
            <mxPoint as="offset" />
          </mxGeometry>
        </mxCell>
        <mxCell id="ZRqdcsW-6dRnH4pb2Plo-66" value="Закрепить заказ за курьером" style="rounded=1;whiteSpace=wrap;html=1;shadow=0;labelBackgroundColor=none;strokeWidth=1;fontFamily=Verdana;fontSize=8;align=center;" vertex="1" parent="ZRqdcsW-6dRnH4pb2Plo-53">
          <mxGeometry x="260" y="300" width="100" height="60" as="geometry" />
        </mxCell>
        <mxCell id="ZRqdcsW-6dRnH4pb2Plo-67" value="Отправить ответ о том, что заказ успешно взят в доставку" style="rounded=1;whiteSpace=wrap;html=1;shadow=0;labelBackgroundColor=none;strokeWidth=1;fontFamily=Verdana;fontSize=8;align=center;" vertex="1" parent="ZRqdcsW-6dRnH4pb2Plo-53">
          <mxGeometry x="260" y="390" width="100" height="60" as="geometry" />
        </mxCell>
        <mxCell id="ZRqdcsW-6dRnH4pb2Plo-68" value="" style="endArrow=classic;html=1;rounded=0;exitX=0;exitY=0.5;exitDx=0;exitDy=0;entryX=0.5;entryY=0;entryDx=0;entryDy=0;edgeStyle=orthogonalEdgeStyle;" edge="1" parent="ZRqdcsW-6dRnH4pb2Plo-53" source="ZRqdcsW-6dRnH4pb2Plo-62" target="ZRqdcsW-6dRnH4pb2Plo-66">
          <mxGeometry width="50" height="50" relative="1" as="geometry">
            <mxPoint x="330" y="300" as="sourcePoint" />
            <mxPoint x="380" y="250" as="targetPoint" />
          </mxGeometry>
        </mxCell>
        <mxCell id="ZRqdcsW-6dRnH4pb2Plo-69" value="Нет" style="edgeLabel;html=1;align=center;verticalAlign=middle;resizable=0;points=[];" vertex="1" connectable="0" parent="ZRqdcsW-6dRnH4pb2Plo-68">
          <mxGeometry x="-0.6065" y="-1" relative="1" as="geometry">
            <mxPoint as="offset" />
          </mxGeometry>
        </mxCell>
        <mxCell id="ZRqdcsW-6dRnH4pb2Plo-70" value="" style="endArrow=classic;html=1;rounded=0;exitX=0.5;exitY=1;exitDx=0;exitDy=0;entryX=0.5;entryY=0;entryDx=0;entryDy=0;" edge="1" parent="ZRqdcsW-6dRnH4pb2Plo-53" source="ZRqdcsW-6dRnH4pb2Plo-66" target="ZRqdcsW-6dRnH4pb2Plo-67">
          <mxGeometry width="50" height="50" relative="1" as="geometry">
            <mxPoint x="230" y="420" as="sourcePoint" />
            <mxPoint x="280" y="370" as="targetPoint" />
          </mxGeometry>
        </mxCell>
        <mxCell id="ZRqdcsW-6dRnH4pb2Plo-71" value="" style="endArrow=classic;html=1;rounded=0;exitX=0.5;exitY=1;exitDx=0;exitDy=0;entryX=0.5;entryY=0;entryDx=0;entryDy=0;edgeStyle=orthogonalEdgeStyle;" edge="1" parent="ZRqdcsW-6dRnH4pb2Plo-47" source="ZRqdcsW-6dRnH4pb2Plo-57" target="ZRqdcsW-6dRnH4pb2Plo-50">
          <mxGeometry width="50" height="50" relative="1" as="geometry">
            <mxPoint x="530" y="420" as="sourcePoint" />
            <mxPoint x="580" y="370" as="targetPoint" />
            <Array as="points">
              <mxPoint x="560" y="320" />
              <mxPoint x="165" y="320" />
            </Array>
          </mxGeometry>
        </mxCell>
        <mxCell id="ZRqdcsW-6dRnH4pb2Plo-72" value="" style="endArrow=classic;html=1;rounded=0;exitX=0.5;exitY=1;exitDx=0;exitDy=0;entryX=0.5;entryY=0;entryDx=0;entryDy=0;edgeStyle=orthogonalEdgeStyle;" edge="1" parent="ZRqdcsW-6dRnH4pb2Plo-47" source="ZRqdcsW-6dRnH4pb2Plo-67" target="ZRqdcsW-6dRnH4pb2Plo-51">
          <mxGeometry width="50" height="50" relative="1" as="geometry">
            <mxPoint x="460" y="550" as="sourcePoint" />
            <mxPoint x="510" y="500" as="targetPoint" />
          </mxGeometry>
        </mxCell>
      </root>
    </mxGraphModel>
  </diagram>
</mxfile>
